<svg width="250" height="100" viewBox="0 0 250 100" fill="none" xmlns="http://www.w3.org/2000/svg">
<path d="M144.977 50.0231C144.977 61.0433 136.043 69.9771 125.023 69.9771C114.003 69.9771 105.069 61.0433 105.069 50.0231C105.069 39.0028 114.003 30.0691 125.023 30.0691C136.043 30.0691 144.977 39.0028 144.977 50.0231Z" fill="url(#paint0_radial_56_492)"/>
<path d="M159.794 54.9826C160.833 63.2796 155.367 74.752 154.71 75.4199C156.5 74.9404 163.437 70.1839 167.235 65.1146C170.737 60.4412 172.388 56.8487 173.553 53.1827C174.366 50.6261 175.991 44.9668 174.171 38.175C172.483 31.8774 168 28.4055 166.294 27.8722C162.02 26.5361 157.509 27.0735 154.34 30.6858C150.158 35.4541 152.91 39.7952 153.985 41.9724C155.004 43.4965 158.983 48.5034 159.794 54.9826Z" fill="url(#paint1_linear_56_492)"/>
<path d="M90.2057 45.0221C89.1673 36.7252 94.6329 25.2527 95.2901 24.5848C93.5004 25.0644 86.5634 29.8209 82.7649 34.8901C79.2631 39.5635 77.6116 43.156 76.4468 46.822C75.6344 49.3786 74.0094 55.0379 75.8292 61.8298C77.5167 68.1274 81.9995 71.5992 83.7056 72.1325C87.9795 73.4686 92.4914 72.9313 95.6599 69.3189C99.8424 64.5507 97.0899 60.2095 96.0147 58.0323C94.9959 56.5082 91.0165 51.5013 90.2057 45.0221Z" fill="url(#paint2_linear_56_492)"/>
<path d="M119.998 84.7943C111.701 85.8327 100.229 80.3671 99.5606 79.7099C100.04 81.4996 104.797 88.4366 109.866 92.2351C114.539 95.7369 118.132 97.3884 121.798 98.5532C124.354 99.3656 130.014 100.991 136.806 99.1707C143.103 97.4833 146.575 93.0005 147.108 91.2944C148.444 87.0205 147.907 82.5086 144.295 79.3401C139.527 75.1576 135.185 77.9101 133.008 78.9853C131.484 80.0041 126.477 83.9835 119.998 84.7943Z" fill="url(#paint3_linear_56_492)"/>
<path d="M129.983 15.2056C138.28 14.1673 149.752 19.6329 150.42 20.2901C149.94 18.5004 145.184 11.5634 140.115 7.76493C135.441 4.26309 131.849 2.61163 128.183 1.44676C125.626 0.63441 119.967 -0.990589 113.175 0.829248C106.877 2.51666 103.406 6.99953 102.872 8.70557C101.536 12.9795 102.074 17.4914 105.686 20.6599C110.454 24.8424 114.795 22.0899 116.972 21.0147C118.497 19.9959 123.503 16.0165 129.983 15.2056Z" fill="url(#paint4_linear_56_492)"/>
<defs>
<radialGradient id="paint0_radial_56_492" cx="0" cy="0" r="1" gradientUnits="userSpaceOnUse" gradientTransform="translate(125 50) rotate(90) scale(50)">
<stop stop-color="#EB25A1"/>
<stop offset="1" stop-color="#EB25A1" stop-opacity="0.7"/>
</radialGradient>
<linearGradient id="paint1_linear_56_492" x1="125" y1="0" x2="125" y2="100" gradientUnits="userSpaceOnUse">
<stop stop-color="#BD011C"/>
<stop offset="1" stop-color="#BD011C" stop-opacity="0.5"/>
</linearGradient>
<linearGradient id="paint2_linear_56_492" x1="125" y1="0" x2="125" y2="100" gradientUnits="userSpaceOnUse">
<stop stop-color="#0467CD"/>
<stop offset="1" stop-color="#0467CD" stop-opacity="0.5"/>
</linearGradient>
<linearGradient id="paint3_linear_56_492" x1="125" y1="0" x2="125" y2="100" gradientUnits="userSpaceOnUse">
<stop stop-color="#008000"/>
<stop offset="1" stop-color="#008000" stop-opacity="0.5"/>
</linearGradient>
<linearGradient id="paint4_linear_56_492" x1="103.238" y1="18.2122" x2="146.74" y2="6.55587" gradientUnits="userSpaceOnUse">
<stop stop-color="#FCBD02"/>
<stop offset="1" stop-color="#FCBD02" stop-opacity="0.5"/>
</linearGradient>
</defs>
</svg>
