<svg width="250" height="100" viewBox="0 0 250 100" fill="none" xmlns="http://www.w3.org/2000/svg">
<path d="M64.2438 33.1488C69.7519 33.1488 73.9767 34.5641 76.9226 37.3946C79.867 40.2625 81.3407 44.3748 81.3407 49.7285V80.8805C81.3407 81.9899 80.939 82.9269 80.1354 83.6915C79.3693 84.4951 78.4143 84.8969 77.2674 84.8969H63.6711C58.8137 84.8969 54.6444 83.2912 51.1648 80.0784C47.7211 76.8641 46 73.0022 46 68.4881V66.4221C46 61.8706 47.7211 57.9891 51.1633 54.7763C54.6429 51.6025 58.8122 50.0149 63.6696 50.0149C67.1493 50.0149 70.3426 50.8949 73.2495 52.6535V49.7285C73.2495 46.5937 72.5794 44.3928 71.2421 43.1305C69.9033 41.8307 67.5706 41.18 64.2438 41.18C61.8721 41.18 59.5963 41.7917 57.4164 43.0166C56.7283 43.3614 56.0971 43.7617 55.5229 44.2219C55.331 44.3748 55.1586 44.5083 55.0072 44.6237L54.8918 44.7392L54.8348 44.7961C54.0687 45.5997 53.1332 46.0015 52.0238 46.0015C50.9144 46.0015 49.9579 45.6192 49.1558 44.8546C48.3523 44.051 47.9505 43.096 47.9505 41.9866C47.9505 40.8772 48.3328 39.9207 49.0974 39.1186L49.1543 39.0617L49.2113 39.0047C49.2878 38.9282 49.3642 38.8518 49.4407 38.7753C49.7075 38.5459 49.9939 38.3166 50.3012 38.0872C51.2187 37.3226 52.2322 36.6345 53.3416 36.0213C56.7853 34.1053 60.4178 33.1488 64.2438 33.1488ZM54.0897 68.4881C54.0897 70.7833 55.0267 72.7533 56.9007 74.3964C58.7747 76.0021 61.031 76.8056 63.6696 76.8056H73.2495V66.4221C73.2495 64.1269 72.3125 62.1584 70.4385 60.5138C68.5645 58.8692 66.3082 58.0476 63.6696 58.0476C61.031 58.0476 58.7732 58.8707 56.9007 60.5138C55.0267 62.1584 54.0897 64.1284 54.0897 66.4221V68.4881Z" fill="#27B999"/>
<path d="M95.6835 80.7651C95.6835 81.8745 95.2817 82.831 94.4781 83.6331C93.712 84.4366 92.757 84.8384 91.6101 84.8384C90.5007 84.8384 89.5637 84.4366 88.7991 83.6331C87.9955 82.8295 87.5938 81.8745 87.5938 80.7651V51.9654C87.5938 46.8411 89.4093 42.4619 93.0434 38.8278C96.6759 35.1953 101.055 33.3782 106.181 33.3782C109.7 33.3782 112.95 34.2957 115.933 36.1323C118.878 37.9688 121.153 40.4545 122.761 43.5908C123.257 44.5863 123.335 45.5983 122.99 46.6312C122.645 47.7031 121.977 48.4872 120.983 48.9835C119.987 49.5202 118.956 49.5951 117.885 49.2128C116.813 48.868 116.029 48.1994 115.533 47.2054C114.653 45.4468 113.371 44.0496 111.689 43.0181C110.005 41.9852 108.17 41.4694 106.181 41.4694C103.274 41.4694 100.788 42.4829 98.7223 44.5098C96.6954 46.5757 95.682 49.0614 95.682 51.9684V80.7651H95.6835Z" fill="#27B999"/>
<path d="M144.449 77.3815C146.247 77.3815 148.14 76.4835 150.128 74.6844C152.116 72.9259 153.264 70.707 153.57 68.0295C153.686 67.3038 154.182 66.5767 155.062 65.8496C155.903 65.1615 156.877 64.8736 157.988 64.9891C159.098 65.1045 160.015 65.6008 160.742 66.4808C161.431 67.3218 161.718 68.1074 161.603 68.833C161.105 73.5765 159.098 77.5344 155.579 80.7082C152.098 83.8056 148.389 85.3738 144.449 85.4127L143.416 85.4697H143.13C138.043 85.4697 133.683 83.6542 130.049 80.0201C126.415 76.3875 124.6 72.0084 124.6 66.8826V51.9085C124.6 46.7842 126.415 42.4051 130.049 38.771C133.682 35.1384 138.043 33.3214 143.13 33.3214H143.359C147.986 33.3604 152.059 34.948 155.579 38.0829C159.098 41.2582 161.105 45.2161 161.603 49.9581C161.718 50.6852 161.431 51.4693 160.742 52.3103C160.015 53.1903 159.098 53.6866 157.988 53.802C156.879 53.9175 155.903 53.6296 155.062 52.9415C154.182 52.2159 153.686 51.4887 153.57 50.7616C153.264 48.0855 152.116 45.8667 150.128 44.1067C148.139 42.3091 145.806 41.4111 143.128 41.4111V41.3541C140.26 41.3541 137.793 42.3871 135.728 44.4515C133.701 46.5174 132.688 49.0031 132.688 51.91V66.8841C132.688 69.791 133.701 72.2767 135.728 74.3426C137.794 76.3695 140.26 77.383 143.128 77.383H143.185H144.449V77.3815Z" fill="#27B999"/>
<path d="M183.979 33.1488C189.487 33.1488 193.711 34.5641 196.657 37.3946C199.602 40.2625 201.076 44.3748 201.076 49.7285V80.8805C201.076 81.9899 200.674 82.9269 199.87 83.6915C199.104 84.4951 198.149 84.8969 197.002 84.8969H183.406C178.549 84.8969 174.379 83.2912 170.9 80.0784C167.457 76.8656 165.736 73.0037 165.736 68.4896V66.4237C165.736 61.8721 167.457 57.9906 170.9 54.7778C174.379 51.604 178.549 50.0164 183.406 50.0164C186.886 50.0164 190.079 50.8964 192.986 52.655V49.7285C192.986 46.5937 192.316 44.3928 190.978 43.1305C189.64 41.8307 187.307 41.18 183.98 41.18C181.608 41.18 179.333 41.7917 177.153 43.0166C176.465 43.3614 175.833 43.7617 175.259 44.2219C175.067 44.3748 174.895 44.5083 174.744 44.6237L174.628 44.7392L174.571 44.7961C173.805 45.5997 172.87 46.0015 171.76 46.0015C170.651 46.0015 169.694 45.6192 168.892 44.8546C168.089 44.051 167.687 43.096 167.687 41.9866C167.687 40.8772 168.069 39.9207 168.834 39.1186L168.891 39.0617L168.948 39.0047C169.024 38.9282 169.101 38.8518 169.177 38.7753C169.444 38.5459 169.73 38.3166 170.038 38.0872C170.955 37.3226 171.969 36.6345 173.078 36.0213C176.52 34.1053 180.154 33.1488 183.979 33.1488ZM173.825 68.4881C173.825 70.7833 174.762 72.7533 176.636 74.3964C178.51 76.0021 180.766 76.8056 183.404 76.8056H192.984V66.4221C192.984 64.1269 192.047 62.1584 190.173 60.5138C188.299 58.8692 186.043 58.0476 183.404 58.0476C180.766 58.0476 178.508 58.8707 176.636 60.5138C174.762 62.1584 173.825 64.1284 173.825 66.4221V68.4881Z" fill="#27B999"/>
<path d="M66.3749 67.3307C66.3749 69.1882 64.8697 70.6949 63.0107 70.6949C61.1532 70.6949 59.6465 69.1882 59.6465 67.3307C59.6465 65.4732 61.1517 63.9665 63.0107 63.9665C64.8682 63.9665 66.3749 65.4732 66.3749 67.3307Z" fill="#F7941D"/>
<path d="M185.854 67.3307C185.854 68.8539 184.619 70.0892 183.095 70.0892C181.572 70.0892 180.337 68.8539 180.337 67.3307C180.337 65.8075 181.572 64.5722 183.095 64.5722C184.619 64.5722 185.854 65.8075 185.854 67.3307Z" fill="#F7941D"/>
<path d="M70.2107 22.701H70.1732L70.1357 22.7759C69.8629 23.0982 69.4296 23.5435 68.8359 24.1132C68.2662 24.6334 67.5976 25.1162 66.83 25.5629C66.0129 26.0337 65.1089 26.3935 64.1179 26.6409C63.0775 26.9377 61.9261 27.0861 60.6623 27.0861C58.8287 27.0861 57.0822 26.7638 55.424 26.1206C53.8139 25.452 52.3896 24.5225 51.1513 23.3336C49.9369 22.1447 48.9715 20.7085 48.2533 19.0234C47.5592 17.3893 47.2129 15.5677 47.2129 13.5618C47.2129 11.6293 47.5712 9.80929 48.2908 8.1002C49.0089 6.4166 49.9744 4.97886 51.1888 3.78999C52.4016 2.60112 53.8394 1.67311 55.499 1.00297C57.1331 0.334323 58.8797 0 60.7372 0C63.4373 0.0254865 65.7895 0.656652 67.7955 1.89499C69.8254 3.13334 71.4115 4.76897 72.5509 6.79889L69.4671 7.57848C68.575 6.11675 67.3487 4.97736 65.7895 4.16029C64.2288 3.34323 62.5437 2.93394 60.7372 2.93394C59.2515 2.93394 57.8767 3.19331 56.6129 3.71353C55.3491 4.23375 54.2592 4.95187 53.3431 5.86789C52.4271 6.7839 51.709 7.89931 51.1888 9.21111C50.6686 10.5244 50.4092 11.9487 50.4092 13.4838C50.4092 15.0685 50.6686 16.5182 51.1888 17.83C51.709 19.1179 52.4391 20.2333 53.3806 21.1733C54.2726 22.0653 55.3746 22.7834 56.6879 23.3276C57.9517 23.8478 59.325 24.1072 60.8122 24.1072C62.025 24.1072 63.1764 23.9348 64.2678 23.587C65.3083 23.2647 66.2243 22.8314 67.0174 22.2872C67.8104 21.767 68.4791 21.2092 69.0233 20.6156C69.5675 20.0204 69.9768 19.4387 70.2497 18.869V15.6367H62.2994V13.115H72.8883V26.5644H70.2107V24.7069V23.518V22.8869V22.701Z" fill="#F7941D"/>
<path d="M103.055 26.5645H99.6371L93.7302 16.8676C93.6058 16.8931 93.3959 16.9051 93.099 16.9051H92.4304H87.564V26.5645H84.5176V0.59375H92.4319C95.5022 0.59375 97.8935 1.33736 99.6026 2.82307C101.312 4.30878 102.166 6.31472 102.166 8.84238C102.166 10.6759 101.695 12.2366 100.754 13.5229C99.8125 14.8107 98.4752 15.7282 96.7421 16.2724L103.055 26.5645ZM87.525 14.1556H92.6897L92.7272 14.193C94.8321 14.193 96.4168 13.6863 97.4827 12.6698C98.5231 11.6789 99.0434 10.3911 99.0434 8.8064C99.0434 7.14678 98.4857 5.83348 97.3718 4.86799C96.2578 3.9025 94.6972 3.41826 92.6897 3.41826H87.525V14.1556Z" fill="#F7941D"/>
<path d="M131.701 0.557709H134.747L134.785 15.7896C134.785 19.4807 133.855 22.2917 131.998 24.2227C130.164 26.1296 127.527 27.0831 124.084 27.0831C120.64 27.0831 118.003 26.1296 116.171 24.2227C114.313 22.2902 113.384 19.4792 113.384 15.7896V0.557709H116.43V15.8271C116.43 21.4506 118.968 24.2601 124.046 24.2601C129.148 24.2601 131.7 21.4491 131.7 15.8271V0.557709H131.701Z" fill="#F7941D"/>
<path d="M146.933 0.557683H154.92V0.520203C157.917 0.520203 160.283 1.25181 162.016 2.71204C163.725 4.14828 164.58 6.1797 164.58 8.80481C164.58 11.4059 163.725 13.4493 162.016 14.9351C160.307 16.4208 157.941 17.1644 154.92 17.1644H149.979V26.5644H146.933V0.557683ZM149.942 14.3039H154.808H154.845C157 14.3039 158.635 13.8212 159.749 12.8557C160.863 11.8902 161.421 10.5529 161.421 8.84379C161.421 7.08523 160.826 5.74793 159.637 4.83192C158.423 3.89042 156.814 3.41967 154.806 3.41967H149.94V14.3039H149.942Z" fill="#F7941D"/>
<path d="M173.125 13.5978L173.014 13.6727C173.014 11.7403 173.372 9.92023 174.092 8.21114C174.81 6.52753 175.775 5.08979 176.99 3.90092C178.202 2.71205 179.64 1.78255 181.3 1.1139C182.934 0.445254 184.68 0.110931 186.538 0.110931C188.396 0.110931 190.142 0.445254 191.776 1.1139C193.436 1.78255 194.872 2.71205 196.086 3.90092C197.325 5.08979 198.29 6.51404 198.984 8.17366C199.703 9.88275 200.062 11.7028 200.062 13.6353C200.062 15.6412 199.715 17.4612 199.022 19.0969C198.328 20.7565 197.362 22.1807 196.124 23.3696C194.91 24.5585 193.473 25.488 191.814 26.1566C190.154 26.7998 188.407 27.1221 186.575 27.1221C184.742 27.1221 182.995 26.7998 181.337 26.1566C179.727 25.488 178.303 24.5585 177.065 23.3696C175.85 22.1807 174.885 20.7445 174.167 19.0594C173.471 17.4252 173.125 15.6037 173.125 13.5978ZM176.357 13.5603L176.246 13.5978C176.246 15.1584 176.505 16.5827 177.026 17.8705C177.546 19.1583 178.276 20.2737 179.217 21.2137C180.109 22.1058 181.211 22.8239 182.525 23.3681C183.788 23.8883 185.162 24.1477 186.649 24.1477C188.111 24.1477 189.472 23.8883 190.736 23.3681C192.048 22.8239 193.151 22.1043 194.043 21.2137C194.985 20.2722 195.715 19.1583 196.235 17.8705C196.755 16.5827 197.014 15.1465 197.014 13.5603C197.014 11.9756 196.755 10.5259 196.235 9.2141C195.715 7.92629 194.985 6.81238 194.043 5.87088C193.127 4.95486 192.037 4.23674 190.773 3.71652C189.509 3.1963 188.148 2.93693 186.686 2.93693C185.201 2.93693 183.826 3.1963 182.562 3.71652C181.298 4.23674 180.208 4.95486 179.292 5.87088C178.376 6.78689 177.658 7.9023 177.138 9.2141C176.616 10.5274 176.357 11.9756 176.357 13.5603Z" fill="#F7941D"/>
<path d="M54.9015 94.6403L54.0845 94.8472L54.026 94.8367C53.7906 94.4499 53.4653 94.1486 53.053 93.9312C52.6392 93.7153 52.194 93.6073 51.7157 93.6073C51.3229 93.6073 50.9586 93.6763 50.6243 93.8142C50.29 93.9522 50.0006 94.1426 49.7593 94.3854C49.5164 94.6283 49.326 94.9236 49.1896 95.27C49.0516 95.6103 48.9827 95.9881 48.9827 96.4004C48.9827 96.8126 49.0516 97.1904 49.1896 97.5308C49.3275 97.8711 49.5209 98.1664 49.7698 98.4153C50.0051 98.6507 50.2975 98.8411 50.6453 98.985C50.9796 99.1229 51.3394 99.1919 51.7277 99.1919C52.2584 99.1919 52.7412 99.0645 53.1729 98.8081C53.6122 98.5517 53.9435 98.2084 54.1654 97.7751L54.9615 97.991C54.8101 98.3059 54.6302 98.5817 54.4203 98.8171C54.2104 99.0525 53.9645 99.2623 53.6827 99.4468C53.4008 99.6297 53.0995 99.7646 52.7772 99.85C52.4563 99.949 52.1115 99.997 51.7442 99.997C51.2585 99.997 50.7967 99.9115 50.3574 99.7406C49.9317 99.5637 49.5539 99.3178 49.227 99.003C48.9062 98.6881 48.6498 98.3074 48.4594 97.8621C48.275 97.4288 48.1836 96.9476 48.1836 96.4169C48.1836 95.9056 48.278 95.4229 48.4684 94.9716C48.6588 94.5264 48.9137 94.1456 49.236 93.8307C49.5584 93.5159 49.9377 93.27 50.3769 93.0931C50.8102 92.9162 51.272 92.8278 51.7637 92.8278C52.1115 92.8278 52.4353 92.8712 52.7367 92.9552C53.071 93.0466 53.3633 93.1681 53.6122 93.3195C53.8941 93.4829 54.1369 93.6733 54.3393 93.8892C54.5627 94.1231 54.7501 94.3719 54.9015 94.6403Z" fill="#F7941D"/>
<path d="M57.2302 96.4214L57.2002 96.4409C57.2002 95.9297 57.2946 95.4469 57.485 94.9957C57.6754 94.5504 57.9303 94.1696 58.2526 93.8548C58.5735 93.5399 58.9543 93.2941 59.3935 93.1172C59.8268 92.9403 60.2886 92.8518 60.7803 92.8518C61.272 92.8518 61.7338 92.9403 62.1671 93.1172C62.6063 93.2941 62.9871 93.5399 63.308 93.8548C63.6363 94.1696 63.8911 94.5459 64.0755 94.9852C64.2659 95.4379 64.3604 95.9192 64.3604 96.4304C64.3604 96.9611 64.2689 97.4439 64.0845 97.8756C63.9016 98.3149 63.6453 98.6927 63.317 99.006C62.9961 99.3209 62.6153 99.5667 62.1761 99.7436C61.7368 99.9146 61.275 100 60.7893 100C60.3035 100 59.8418 99.9146 59.4025 99.7436C58.9768 99.5667 58.599 99.3209 58.2721 99.006C57.9513 98.6912 57.6949 98.3104 57.5045 97.8651C57.3231 97.4334 57.2302 96.9521 57.2302 96.4214ZM58.0862 96.4109L58.0562 96.4214C58.0562 96.8352 58.1252 97.2115 58.2631 97.5518C58.4011 97.8921 58.5945 98.1875 58.8433 98.4363C59.0787 98.6717 59.371 98.8621 59.7189 99.0075C60.0532 99.1455 60.4175 99.2144 60.8103 99.2144C61.1971 99.2144 61.5584 99.1455 61.8927 99.0075C62.2405 98.8636 62.5314 98.6732 62.7682 98.4363C63.0171 98.1875 63.2105 97.8921 63.3484 97.5518C63.4864 97.2115 63.5553 96.8307 63.5553 96.4109C63.5553 95.9911 63.4864 95.6073 63.3484 95.2595C63.2105 94.9192 63.0171 94.6239 62.7682 94.375C62.5254 94.1321 62.2375 93.9417 61.9032 93.8053C61.5689 93.6689 61.2076 93.5984 60.8208 93.5984C60.428 93.5984 60.0637 93.6674 59.7294 93.8053C59.395 93.9432 59.1057 94.1336 58.8643 94.375C58.6214 94.6179 58.431 94.9132 58.2931 95.2595C58.1552 95.6073 58.0862 95.9911 58.0862 96.4109Z" fill="#F7941D"/>
<path d="M72.1609 92.9687H72.9675V99.8635H72.2104L69.152 95.7527C69.0936 95.6748 69.0141 95.5683 68.9166 95.4334C68.8177 95.2985 68.7592 95.216 68.7397 95.183C68.6678 95.0841 68.5598 94.9311 68.4159 94.7213C68.305 94.5638 68.236 94.4619 68.209 94.4169L68.1296 94.2985H68.1191V94.4454V94.8592V95.4784V96.2459V99.856H67.3125V92.9717H68.0696L71.128 97.0825C71.161 97.129 71.2194 97.2099 71.3049 97.3284C71.3903 97.4468 71.4563 97.5353 71.5013 97.5937C71.5478 97.6597 71.6077 97.7452 71.6827 97.8501C71.7576 97.955 71.8056 98.021 71.8251 98.0465C71.9241 98.1844 72.002 98.2924 72.0605 98.3718L72.1489 98.4903H72.1594V98.3328V97.9101V97.2999V96.5923V92.9687H72.1609Z" fill="#F7941D"/>
<path d="M80.8363 94.6704L80.0687 94.8773L79.9698 94.9163C79.9308 94.7064 79.8618 94.519 79.7629 94.3556C79.6714 94.1921 79.5425 94.0512 79.3791 93.9328C79.2217 93.8143 79.0508 93.7259 78.8679 93.6674C78.6775 93.609 78.4751 93.579 78.2577 93.579C77.8049 93.579 77.4346 93.6779 77.1468 93.8743C76.8589 94.0707 76.7135 94.3436 76.7135 94.6914C76.7135 94.8743 76.769 95.0317 76.8814 95.1636C76.9864 95.2881 77.1303 95.396 77.3147 95.489C77.4976 95.5804 77.6985 95.6599 77.9144 95.7243L78.5935 95.9312C78.8034 95.9897 79.0598 96.0751 79.3611 96.1876C79.6295 96.2865 79.8753 96.414 80.0987 96.5714C80.3281 96.7288 80.5155 96.9192 80.6594 97.1411C80.8108 97.3705 80.8858 97.6523 80.8858 97.9866C80.8858 98.276 80.8273 98.5413 80.7089 98.7827C80.5904 99.0256 80.424 99.2355 80.2067 99.4124C79.9908 99.5893 79.7284 99.7272 79.4196 99.8262C79.1047 99.9176 78.7599 99.9641 78.3866 99.9641C78.0328 99.9641 77.6985 99.9176 77.3837 99.8262C77.0823 99.7272 76.8229 99.5908 76.6071 99.4124C76.4032 99.2415 76.2233 99.0286 76.0658 98.7737C75.9219 98.5248 75.823 98.2595 75.7705 97.9776L76.5471 97.7707C76.5726 97.9611 76.6325 98.1515 76.724 98.3404C76.8095 98.5174 76.9339 98.6778 77.0973 98.8217C77.2547 98.9596 77.4421 99.0676 77.658 99.147C77.8739 99.225 78.1273 99.2655 78.4151 99.2655C78.9263 99.2655 79.3296 99.147 79.625 98.9116C79.9203 98.6763 80.0672 98.3734 80.0672 98.0061C80.0672 97.7572 79.9983 97.5534 79.8603 97.3959C79.7164 97.2325 79.5455 97.0976 79.3491 96.9927C79.1452 96.8877 78.9128 96.7993 78.6505 96.7273C78.4796 96.6808 78.2307 96.6059 77.9024 96.5009C77.6865 96.435 77.4766 96.363 77.2727 96.285C77.0568 96.1996 76.8469 96.0916 76.643 95.9612C76.4526 95.8368 76.2922 95.6689 76.1618 95.459C76.0374 95.2566 75.9744 95.0062 75.9744 94.7109C75.9744 94.4425 76.0329 94.1966 76.1513 93.9733C76.2697 93.7499 76.4332 93.5535 76.643 93.3826C76.8394 93.2252 77.0913 93.0947 77.4001 92.9898C77.6955 92.8908 78.0163 92.8429 78.3641 92.8429C78.6925 92.8429 78.9863 92.8863 79.2487 92.9703C79.517 93.0557 79.7629 93.1802 79.9863 93.3436C80.1902 93.495 80.3701 93.6884 80.5275 93.9238C80.6744 94.1457 80.7764 94.3945 80.8363 94.6704Z" fill="#F7941D"/>
<path d="M88.4661 92.9687H89.2726L89.2831 97.0016C89.2831 97.979 89.0373 98.7226 88.5455 99.2339C88.0598 99.7391 87.3627 99.991 86.4511 99.991C85.5396 99.991 84.841 99.7391 84.3568 99.2339C83.865 98.7226 83.6191 97.979 83.6191 97.0016V92.9687H84.4257V97.0105C84.4257 98.4993 85.0974 99.2429 86.4421 99.2429C87.7929 99.2429 88.4676 98.4993 88.4676 97.0105V92.9687H88.4661Z" fill="#F7941D"/>
<path d="M93.2958 99.0959H96.9839V99.853H92.4893V92.9687H93.2958V99.0959Z" fill="#F7941D"/>
<path d="M98.9697 92.9687H104.379V93.7258H102.067V99.853H101.271V93.7258H98.9697V92.9687Z" fill="#F7941D"/>
<path d="M107.89 99.853H107.083V92.9687H107.89V99.853Z" fill="#F7941D"/>
<path d="M116.134 92.9687H116.94V99.8635H116.183L113.125 95.7527C113.066 95.6748 112.987 95.5683 112.889 95.4334C112.79 95.2985 112.732 95.216 112.712 95.183C112.64 95.0841 112.532 94.9311 112.387 94.7213C112.276 94.5638 112.207 94.4619 112.18 94.4169L112.102 94.2985H112.092V94.4454V94.8592V95.4784V96.2459V99.856H111.285V92.9717H112.042L115.101 97.0825C115.134 97.129 115.192 97.2099 115.278 97.3284C115.363 97.4468 115.427 97.5353 115.474 97.5937C115.52 97.6597 115.58 97.7452 115.655 97.8501C115.73 97.955 115.778 98.021 115.798 98.0465C115.897 98.1844 115.975 98.2924 116.033 98.3718L116.122 98.4903H116.132V98.3328V97.9101V97.2999V96.5923V92.9687H116.134Z" fill="#F7941D"/>
<path d="M125.957 98.8306H125.946L125.936 98.8501C125.864 98.9356 125.749 99.054 125.591 99.2039C125.44 99.3418 125.263 99.4693 125.06 99.5877C124.845 99.7122 124.605 99.8081 124.342 99.8726C124.066 99.9505 123.762 99.991 123.428 99.991C122.942 99.991 122.48 99.9055 122.041 99.7346C121.615 99.5577 121.237 99.3119 120.911 98.997C120.59 98.6822 120.333 98.3029 120.143 97.8561C119.959 97.4229 119.867 96.9416 119.867 96.4109C119.867 95.8997 119.962 95.4169 120.152 94.9657C120.342 94.5204 120.597 94.1396 120.92 93.8248C121.24 93.5099 121.621 93.2641 122.061 93.0872C122.494 92.9103 122.956 92.8218 123.447 92.8218C124.162 92.8278 124.785 92.9957 125.315 93.324C125.854 93.6524 126.272 94.0841 126.575 94.6224L125.759 94.8292C125.524 94.4425 125.198 94.1411 124.785 93.9237C124.372 93.7078 123.926 93.5999 123.447 93.5999C123.055 93.5999 122.69 93.6689 122.356 93.8068C122.022 93.9447 121.732 94.1351 121.491 94.3765C121.248 94.6194 121.058 94.9147 120.92 95.261C120.782 95.6088 120.713 95.9851 120.713 96.3914C120.713 96.8112 120.782 97.195 120.92 97.5428C121.058 97.8831 121.251 98.1785 121.5 98.4273C121.735 98.6627 122.028 98.8531 122.375 98.997C122.71 99.135 123.074 99.2039 123.467 99.2039C123.788 99.2039 124.093 99.1574 124.381 99.066C124.657 98.9805 124.9 98.8666 125.108 98.7212C125.318 98.5832 125.495 98.4363 125.639 98.2789C125.783 98.1215 125.891 97.9671 125.964 97.8172V96.9611H123.86V96.2925H126.663V99.8531H125.955V99.3613V99.0465V98.8786V98.8306H125.957Z" fill="#F7941D"/>
<path d="M139.668 95.9776V96.6268L138.38 96.6073V97.4138C138.38 97.8006 138.33 98.1514 138.233 98.4663C138.134 98.7811 137.984 99.0495 137.78 99.2729C137.576 99.5022 137.311 99.6791 136.984 99.8036C136.656 99.922 136.257 99.9805 135.785 99.9805C135.431 99.9805 135.096 99.934 134.782 99.8426C134.473 99.7436 134.21 99.6072 133.995 99.4288C133.779 99.2519 133.611 99.036 133.492 98.7796C133.374 98.5233 133.315 98.2414 133.315 97.9341C133.315 97.6987 133.354 97.4813 133.434 97.2849C133.512 97.0885 133.621 96.9206 133.758 96.7827C133.89 96.6522 134.046 96.5398 134.23 96.4484C134.401 96.3629 134.587 96.3104 134.791 96.2909V96.2804C134.639 96.261 134.486 96.2115 134.329 96.1335C134.171 96.0556 134.031 95.9536 133.906 95.8292C133.782 95.7048 133.674 95.5503 133.581 95.3674C133.495 95.1965 133.453 94.9911 133.453 94.7483C133.453 94.5189 133.492 94.2925 133.572 94.0691C133.65 93.8457 133.785 93.6403 133.975 93.4499C134.158 93.267 134.395 93.1156 134.683 92.9972C134.971 92.8787 135.315 92.8203 135.716 92.8203C136.03 92.8203 136.315 92.8623 136.572 92.9477C136.834 93.0392 137.069 93.1681 137.279 93.3315C137.489 93.4949 137.666 93.7018 137.81 93.9507C137.954 94.1935 138.056 94.4724 138.114 94.7872L137.416 94.9836C137.297 94.4979 137.101 94.1321 136.825 93.8817C136.557 93.6389 136.182 93.5174 135.704 93.5174C135.408 93.5174 135.173 93.5594 134.996 93.6448C134.812 93.7303 134.665 93.8382 134.554 93.9702C134.449 94.0946 134.377 94.2325 134.338 94.384C134.299 94.5279 134.279 94.6598 134.279 94.7767C134.279 94.9536 134.312 95.1111 134.378 95.249C134.45 95.3929 134.549 95.5204 134.674 95.6328C134.812 95.7512 134.972 95.8367 135.155 95.8891C135.351 95.9476 135.578 95.9776 135.834 95.9776H139.668ZM137.602 97.3944V96.6178L135.792 96.6283C135.563 96.6283 135.336 96.6552 135.113 96.7062C134.903 96.7587 134.726 96.8381 134.582 96.9416C134.438 97.0465 134.32 97.1845 134.228 97.3554C134.143 97.5188 134.101 97.7092 134.101 97.9251C134.101 98.135 134.143 98.3224 134.228 98.4858C134.32 98.6567 134.438 98.8006 134.582 98.919C134.72 99.03 134.897 99.1229 135.113 99.1949C135.309 99.2609 135.536 99.2938 135.792 99.2938C136.14 99.2938 136.428 99.2519 136.657 99.1664C136.887 99.081 137.074 98.9565 137.218 98.7931C137.356 98.6357 137.453 98.4393 137.513 98.2024C137.573 97.9656 137.602 97.6957 137.602 97.3944Z" fill="#F7941D"/>
<path d="M150.811 94.6704L150.043 94.8773L149.944 94.9163C149.905 94.7064 149.836 94.519 149.737 94.3556C149.646 94.1921 149.517 94.0512 149.354 93.9328C149.196 93.8143 149.025 93.7259 148.842 93.6674C148.652 93.609 148.45 93.579 148.232 93.579C147.78 93.579 147.409 93.6779 147.121 93.8743C146.834 94.0707 146.688 94.3436 146.688 94.6914C146.688 94.8743 146.744 95.0317 146.856 95.1636C146.961 95.2881 147.105 95.396 147.289 95.489C147.472 95.5804 147.673 95.6599 147.889 95.7243L148.568 95.9312C148.778 95.9897 149.033 96.0751 149.336 96.1876C149.604 96.2865 149.85 96.414 150.073 96.5714C150.303 96.7288 150.49 96.9192 150.634 97.1411C150.784 97.3705 150.86 97.6523 150.86 97.9866C150.86 98.276 150.802 98.5413 150.683 98.7827C150.565 99.0256 150.399 99.2355 150.181 99.4124C149.965 99.5893 149.703 99.7272 149.394 99.8262C149.079 99.9176 148.735 99.9641 148.361 99.9641C148.007 99.9641 147.673 99.9176 147.358 99.8262C147.057 99.7272 146.798 99.5908 146.582 99.4124C146.378 99.2415 146.198 99.0286 146.04 98.7737C145.897 98.5248 145.798 98.2595 145.745 97.9776L146.522 97.7707C146.547 97.9611 146.607 98.1515 146.699 98.3404C146.784 98.5174 146.908 98.6778 147.072 98.8217C147.229 98.9596 147.417 99.0676 147.633 99.147C147.848 99.2265 148.102 99.2655 148.39 99.2655C148.901 99.2655 149.304 99.147 149.6 98.9116C149.895 98.6763 150.042 98.3734 150.042 98.0061C150.042 97.7572 149.973 97.5534 149.835 97.3959C149.691 97.2325 149.52 97.0976 149.324 96.9927C149.12 96.8877 148.887 96.7993 148.625 96.7273C148.454 96.6808 148.205 96.6059 147.877 96.5009C147.661 96.435 147.451 96.363 147.247 96.285C147.031 96.1996 146.822 96.0916 146.618 95.9612C146.427 95.8368 146.267 95.6689 146.136 95.459C146.012 95.2566 145.949 95.0062 145.949 94.7109C145.949 94.4425 146.007 94.1966 146.126 93.9733C146.244 93.7499 146.408 93.5535 146.618 93.3826C146.814 93.2252 147.067 93.0947 147.375 92.9898C147.67 92.8908 147.991 92.8429 148.339 92.8429C148.667 92.8429 148.961 92.8863 149.223 92.9703C149.492 93.0557 149.737 93.1802 149.961 93.3436C150.163 93.495 150.345 93.6884 150.502 93.9238C150.649 94.1457 150.751 94.3945 150.811 94.6704Z" fill="#F7941D"/>
<path d="M154.586 99.0959H158.431V99.853H153.779V92.9687H158.373V93.7258H154.586V95.8502H157.625V96.5683H154.586V99.0959Z" fill="#F7941D"/>
<path d="M166.457 99.853H165.552L163.988 97.2863C163.955 97.2923 163.9 97.2968 163.82 97.2968H163.643H162.355V99.8545H161.549V92.9791H163.643C164.456 92.9791 165.088 93.1755 165.541 93.5698C165.994 93.9626 166.22 94.4948 166.22 95.1635C166.22 95.6492 166.096 96.0615 165.847 96.4033C165.598 96.7436 165.244 96.9865 164.786 97.1304L166.457 99.853ZM162.346 96.5682H163.714L163.724 96.5787C164.282 96.5787 164.702 96.4438 164.984 96.1754C165.259 95.9131 165.396 95.5727 165.396 95.153C165.396 94.7137 165.249 94.3659 164.954 94.111C164.658 93.8562 164.246 93.7272 163.714 93.7272H162.346V96.5682Z" fill="#F7941D"/>
<path d="M174.472 92.9687H175.337L172.376 99.853H171.561L168.619 92.9777H169.495L171.57 97.9056L171.716 98.2894C171.73 98.3164 171.751 98.3673 171.781 98.4468C171.811 98.5247 171.832 98.5847 171.845 98.6237C171.884 98.7226 171.914 98.8006 171.934 98.8591L171.973 98.9475H171.983L172.022 98.8486C172.028 98.8291 172.043 98.7916 172.066 98.7361C172.088 98.6807 172.106 98.6402 172.12 98.6132C172.133 98.5802 172.154 98.5247 172.184 98.4453C172.214 98.3673 172.235 98.3074 172.249 98.2684L172.387 97.8951L174.472 92.9687Z" fill="#F7941D"/>
<path d="M178.82 99.853H178.014V92.9687H178.82V99.853Z" fill="#F7941D"/>
<path d="M188.439 94.6403L187.622 94.8472L187.563 94.8367C187.328 94.4499 187.002 94.1486 186.59 93.9312C186.176 93.7153 185.731 93.6073 185.253 93.6073C184.86 93.6073 184.496 93.6763 184.161 93.8142C183.827 93.9522 183.538 94.1426 183.296 94.3854C183.053 94.6283 182.863 94.9236 182.727 95.27C182.589 95.6103 182.52 95.9881 182.52 96.4004C182.52 96.8126 182.589 97.1904 182.727 97.5308C182.865 97.8711 183.058 98.1664 183.307 98.4153C183.542 98.6507 183.835 98.8411 184.182 98.985C184.517 99.1229 184.877 99.1919 185.265 99.1919C185.796 99.1919 186.278 99.0645 186.71 98.8081C187.149 98.5517 187.481 98.2084 187.703 97.7751L188.499 97.991C188.347 98.3059 188.167 98.5817 187.957 98.8171C187.748 99.0525 187.502 99.2623 187.22 99.4468C186.938 99.6297 186.637 99.7646 186.314 99.85C185.993 99.949 185.649 99.997 185.281 99.997C184.796 99.997 184.334 99.9115 183.895 99.7406C183.469 99.5637 183.091 99.3178 182.764 99.003C182.443 98.6881 182.187 98.3074 181.997 97.8621C181.812 97.4288 181.721 96.9476 181.721 96.4169C181.721 95.9056 181.815 95.4229 182.006 94.9716C182.196 94.5264 182.451 94.1456 182.773 93.8307C183.095 93.5159 183.475 93.27 183.914 93.0931C184.347 92.9162 184.809 92.8278 185.301 92.8278C185.649 92.8278 185.972 92.8712 186.274 92.9552C186.608 93.0466 186.9 93.1681 187.149 93.3195C187.431 93.4829 187.674 93.6733 187.876 93.8892C188.101 94.1231 188.289 94.3719 188.439 94.6403Z" fill="#F7941D"/>
<path d="M192.088 99.0959H195.933V99.853H191.281V92.9687H195.875V93.7258H192.088V95.8502H195.127V96.5683H192.088V99.0959Z" fill="#F7941D"/>
<path d="M203.505 94.6704L202.738 94.8773L202.639 94.9163C202.6 94.7064 202.531 94.519 202.432 94.3556C202.34 94.1921 202.211 94.0512 202.048 93.9328C201.891 93.8143 201.72 93.7259 201.537 93.6674C201.346 93.609 201.144 93.579 200.927 93.579C200.474 93.579 200.104 93.6779 199.816 93.8743C199.528 94.0707 199.382 94.3436 199.382 94.6914C199.382 94.8743 199.438 95.0317 199.55 95.1636C199.655 95.2881 199.799 95.396 199.984 95.489C200.167 95.5804 200.367 95.6599 200.583 95.7243L201.262 95.9312C201.472 95.9897 201.727 96.0751 202.03 96.1876C202.298 96.2865 202.544 96.414 202.768 96.5714C202.997 96.7288 203.184 96.9192 203.328 97.1411C203.478 97.3705 203.555 97.6523 203.555 97.9866C203.555 98.276 203.496 98.5413 203.378 98.7827C203.259 99.0256 203.093 99.2355 202.876 99.4124C202.66 99.5893 202.397 99.7272 202.089 99.8262C201.774 99.9176 201.429 99.9641 201.056 99.9641C200.702 99.9641 200.367 99.9176 200.053 99.8262C199.751 99.7272 199.492 99.5908 199.276 99.4124C199.072 99.2415 198.892 99.0286 198.735 98.7737C198.591 98.5248 198.492 98.2595 198.439 97.9776L199.216 97.7707C199.242 97.9611 199.301 98.1515 199.393 98.3404C199.478 98.5174 199.603 98.6778 199.766 98.8217C199.924 98.9596 200.111 99.0676 200.327 99.147C200.543 99.2265 200.796 99.2655 201.084 99.2655C201.595 99.2655 201.999 99.147 202.294 98.9116C202.589 98.6763 202.736 98.3734 202.736 98.0061C202.736 97.7572 202.667 97.5534 202.529 97.3959C202.385 97.2325 202.214 97.0976 202.018 96.9927C201.814 96.8877 201.582 96.7993 201.319 96.7273C201.149 96.6808 200.9 96.6059 200.571 96.5009C200.355 96.435 200.146 96.363 199.942 96.285C199.726 96.1996 199.516 96.0916 199.312 95.9612C199.122 95.8368 198.961 95.6689 198.831 95.459C198.706 95.2566 198.643 95.0062 198.643 94.7109C198.643 94.4425 198.702 94.1966 198.82 93.9733C198.939 93.7499 199.102 93.5535 199.312 93.3826C199.508 93.2252 199.762 93.0947 200.069 92.9898C200.364 92.8908 200.685 92.8429 201.033 92.8429C201.361 92.8429 201.655 92.8863 201.918 92.9703C202.186 93.0557 202.432 93.1802 202.655 93.3436C202.858 93.495 203.039 93.6884 203.196 93.9238C203.345 94.1457 203.447 94.3945 203.505 94.6704Z" fill="#F7941D"/>
</svg>
