<svg width="40" height="40" viewBox="0 0 40 40" fill="none" xmlns="http://www.w3.org/2000/svg">
<path d="M0 9C0 4.02944 4.02944 0 9 0H31C35.9706 0 40 4.02944 40 9V31C40 35.9706 35.9706 40 31 40H9C4.02944 40 0 35.9706 0 31V9Z" fill="url(#paint0_linear_15_217)"/>
<path d="M20.1999 19.0475L30.4239 12.4795C30.0129 12.1712 29.5138 12.003 28.9999 11.9995H11.4C10.8861 12.003 10.387 12.1712 9.97595 12.4795L20.1999 19.0475Z" fill="white"/>
<path d="M20.632 20.6716L20.496 20.7356H20.432C20.3583 20.7685 20.2801 20.7901 20.2 20.7996C20.1336 20.808 20.0664 20.808 20 20.7996H19.936L19.8 20.7356L9.08 13.8076C9.02878 14.0008 9.00191 14.1997 9 14.3996V25.5996C9 26.2361 9.25286 26.8466 9.70294 27.2967C10.153 27.7468 10.7635 27.9996 11.4 27.9996H29C29.6365 27.9996 30.247 27.7468 30.697 27.2967C31.1471 26.8466 31.4 26.2361 31.4 25.5996V14.3996C31.3981 14.1997 31.3712 14.0008 31.32 13.8076L20.632 20.6716Z" fill="white"/>
<defs>
<linearGradient id="paint0_linear_15_217" x1="0" y1="0" x2="40" y2="40" gradientUnits="userSpaceOnUse">
<stop stop-color="#FD8A7D"/>
<stop offset="1" stop-color="#FFC2B1"/>
</linearGradient>
</defs>
</svg>
