<svg width="40" height="40" viewBox="0 0 40 40" fill="none" xmlns="http://www.w3.org/2000/svg">
<path d="M0 9C0 4.02944 4.02944 0 9 0H31C35.9706 0 40 4.02944 40 9V31C40 35.9706 35.9706 40 31 40H9C4.02944 40 0 35.9706 0 31V9Z" fill="url(#paint0_linear_15_222)"/>
<path d="M26.8183 11.9995H13.1822C12.5292 11.9995 12 12.5126 12 13.1458V26.8527C12 27.4859 12.5294 27.9995 13.1822 27.9995H26.8183C27.4713 27.9995 27.9998 27.4857 27.9998 26.8527V13.1458C27.9998 12.5128 27.4713 11.9995 26.8183 11.9995ZM16.8507 25.3926H14.4332V18.1688H16.8507V25.3926ZM15.6421 17.1819H15.626C14.8153 17.1819 14.2898 16.6274 14.2898 15.9334C14.2898 15.2253 14.8308 14.6859 15.6574 14.6859C16.4843 14.6859 16.9929 15.2251 17.0089 15.9334C17.0089 16.6276 16.4844 17.1819 15.6421 17.1819ZM25.565 25.3926H23.1483V21.5277C23.1483 20.5563 22.798 19.8937 21.9241 19.8937C21.2555 19.8937 20.8587 20.3408 20.6844 20.7723C20.6197 20.9266 20.6039 21.1421 20.6039 21.3576V25.3924H18.1876C18.1876 25.3924 18.2192 18.8461 18.1876 18.1686H20.6041V19.1928C20.925 18.7007 21.4981 17.9986 22.7817 17.9986C24.3723 17.9986 25.565 19.0304 25.565 21.2504V25.3926ZM20.5884 19.2157C20.5927 19.2089 20.5984 19.2008 20.6041 19.1929V19.2157H20.5884Z" fill="white"/>
<defs>
<linearGradient id="paint0_linear_15_222" x1="0" y1="0" x2="40" y2="40" gradientUnits="userSpaceOnUse">
<stop stop-color="#0079ED"/>
<stop offset="1" stop-color="#9FAEE4"/>
</linearGradient>
</defs>
</svg>
