<svg width="139" height="40" viewBox="0 0 139 40" fill="none" xmlns="http://www.w3.org/2000/svg">
<path d="M9.43466 12.4545H12.6591L16.9773 22.9943H17.1477L21.4659 12.4545H24.6903V27H22.1619V17.0071H22.027L18.0071 26.9574H16.1179L12.098 16.9858H11.9631V27H9.43466V12.4545ZM27.446 27V16.0909H30.017V27H27.446ZM28.7386 14.5426C28.3314 14.5426 27.9811 14.4077 27.6875 14.1378C27.3939 13.8632 27.2472 13.5341 27.2472 13.1506C27.2472 12.7623 27.3939 12.4332 27.6875 12.1634C27.9811 11.8887 28.3314 11.7514 28.7386 11.7514C29.1506 11.7514 29.5009 11.8887 29.7898 12.1634C30.0833 12.4332 30.2301 12.7623 30.2301 13.1506C30.2301 13.5341 30.0833 13.8632 29.7898 14.1378C29.5009 14.4077 29.1506 14.5426 28.7386 14.5426ZM37.7354 27V12.4545H43.19C44.3074 12.4545 45.2449 12.6629 46.0025 13.0795C46.7648 13.4962 47.3401 14.0691 47.7283 14.7983C48.1213 15.5227 48.3178 16.3466 48.3178 17.2699C48.3178 18.2027 48.1213 19.0312 47.7283 19.7557C47.3353 20.4801 46.7553 21.0507 45.9883 21.4673C45.2212 21.8793 44.2766 22.0852 43.1545 22.0852H39.5394V19.919H42.7994C43.4528 19.919 43.9878 19.8054 44.4045 19.5781C44.8211 19.3509 45.1289 19.0384 45.3278 18.6406C45.5314 18.2429 45.6332 17.786 45.6332 17.2699C45.6332 16.7538 45.5314 16.2992 45.3278 15.9062C45.1289 15.5133 44.8188 15.2079 44.3974 14.9901C43.9807 14.7675 43.4433 14.6562 42.7852 14.6562H40.3704V27H37.7354ZM55.0952 27.2131C54.0298 27.2131 53.1065 26.9787 52.3253 26.5099C51.544 26.0412 50.938 25.3854 50.5071 24.5426C50.081 23.6998 49.8679 22.715 49.8679 21.5881C49.8679 20.4612 50.081 19.474 50.5071 18.6264C50.938 17.7789 51.544 17.1207 52.3253 16.652C53.1065 16.1832 54.0298 15.9489 55.0952 15.9489C56.1605 15.9489 57.0838 16.1832 57.8651 16.652C58.6463 17.1207 59.25 17.7789 59.6761 18.6264C60.107 19.474 60.3224 20.4612 60.3224 21.5881C60.3224 22.715 60.107 23.6998 59.6761 24.5426C59.25 25.3854 58.6463 26.0412 57.8651 26.5099C57.0838 26.9787 56.1605 27.2131 55.0952 27.2131ZM55.1094 25.1534C55.687 25.1534 56.17 24.9948 56.5582 24.6776C56.9465 24.3556 57.2353 23.9247 57.4247 23.3849C57.6188 22.8452 57.7159 22.2438 57.7159 21.581C57.7159 20.9134 57.6188 20.3097 57.4247 19.7699C57.2353 19.2254 56.9465 18.7921 56.5582 18.4702C56.17 18.1482 55.687 17.9872 55.1094 17.9872C54.5175 17.9872 54.0251 18.1482 53.6321 18.4702C53.2438 18.7921 52.9527 19.2254 52.7585 19.7699C52.5691 20.3097 52.4744 20.9134 52.4744 21.581C52.4744 22.2438 52.5691 22.8452 52.7585 23.3849C52.9527 23.9247 53.2438 24.3556 53.6321 24.6776C54.0251 24.9948 54.5175 25.1534 55.1094 25.1534ZM62.5046 27V16.0909H64.9975V17.9091H65.1112C65.31 17.2794 65.6509 16.794 66.1339 16.4531C66.6216 16.1075 67.1779 15.9347 67.8029 15.9347C67.945 15.9347 68.1036 15.9418 68.2788 15.956C68.4587 15.9654 68.6078 15.982 68.7262 16.0057V18.3707C68.6173 18.3329 68.4445 18.2997 68.2077 18.2713C67.9757 18.2382 67.7508 18.2216 67.533 18.2216C67.0643 18.2216 66.6429 18.3234 66.2688 18.527C65.8995 18.7259 65.6083 19.0028 65.3952 19.358C65.1822 19.7131 65.0756 20.1226 65.0756 20.5866V27H62.5046ZM76.4677 16.0909V18.0795H70.1964V16.0909H76.4677ZM71.7447 13.4773H74.3157V23.7188C74.3157 24.0644 74.3678 24.3295 74.4719 24.5142C74.5808 24.6941 74.7229 24.8172 74.8981 24.8835C75.0733 24.9498 75.2674 24.983 75.4805 24.983C75.6415 24.983 75.7882 24.9711 75.9208 24.9474C76.0581 24.9238 76.1623 24.9025 76.2333 24.8835L76.6665 26.8935C76.5292 26.9408 76.3327 26.9929 76.0771 27.0497C75.8261 27.1065 75.5183 27.1397 75.1538 27.1491C74.5098 27.1681 73.9298 27.071 73.4137 26.858C72.8976 26.6402 72.488 26.304 72.185 25.8494C71.8867 25.3949 71.7399 24.8267 71.7447 24.1449V13.4773ZM81.7571 27.2202C81.0658 27.2202 80.4432 27.0971 79.8892 26.8509C79.34 26.5999 78.9044 26.2306 78.5824 25.7429C78.2652 25.2552 78.1065 24.6539 78.1065 23.9389C78.1065 23.3234 78.2202 22.8144 78.4474 22.4119C78.6747 22.0095 78.9848 21.6875 79.3778 21.446C79.7708 21.2045 80.2135 21.0223 80.706 20.8991C81.2031 20.7713 81.7169 20.679 82.2472 20.6222C82.8864 20.5559 83.4048 20.4967 83.8026 20.4446C84.2003 20.3878 84.4891 20.3026 84.669 20.1889C84.8537 20.0705 84.946 19.8883 84.946 19.642V19.5994C84.946 19.0644 84.7874 18.6501 84.4702 18.3565C84.1529 18.063 83.696 17.9162 83.0994 17.9162C82.4697 17.9162 81.9702 18.0535 81.6009 18.3281C81.2363 18.6027 80.9901 18.9271 80.8622 19.3011L78.4616 18.9602C78.651 18.2973 78.9635 17.7434 79.3991 17.2983C79.8348 16.8485 80.3674 16.5123 80.9972 16.2898C81.6269 16.0625 82.3229 15.9489 83.0852 15.9489C83.6108 15.9489 84.134 16.0104 84.6548 16.1335C85.1757 16.2566 85.6515 16.4602 86.0824 16.7443C86.5133 17.0237 86.8589 17.4048 87.1193 17.8878C87.3845 18.3707 87.517 18.9744 87.517 19.6989V27H85.0455V25.5014H84.9602C84.804 25.8045 84.5838 26.0885 84.2997 26.3537C84.0204 26.6141 83.6676 26.8248 83.2415 26.9858C82.8201 27.142 82.3253 27.2202 81.7571 27.2202ZM82.4247 25.331C82.9408 25.331 83.3883 25.2292 83.767 25.0256C84.1458 24.8172 84.437 24.5426 84.6406 24.2017C84.849 23.8608 84.9531 23.4891 84.9531 23.0866V21.8011C84.8726 21.8674 84.7353 21.929 84.5412 21.9858C84.3518 22.0426 84.1387 22.0923 83.902 22.1349C83.6652 22.1776 83.4309 22.2154 83.1989 22.2486C82.9669 22.2817 82.7656 22.3101 82.5952 22.3338C82.2116 22.3859 81.8684 22.4711 81.5653 22.5895C81.2623 22.7079 81.0232 22.8736 80.848 23.0866C80.6728 23.295 80.5852 23.5649 80.5852 23.8963C80.5852 24.3698 80.758 24.7273 81.1037 24.9688C81.4493 25.2102 81.8897 25.331 82.4247 25.331ZM95.6278 16.0909V18.0795H89.179V16.0909H95.6278ZM90.7912 27V15.0611C90.7912 14.3272 90.9427 13.7164 91.2457 13.2287C91.5535 12.741 91.9654 12.3764 92.4815 12.1349C92.9976 11.8935 93.5705 11.7727 94.2003 11.7727C94.6454 11.7727 95.0407 11.8082 95.3864 11.8793C95.732 11.9503 95.9877 12.0142 96.1534 12.071L95.642 14.0597C95.5331 14.0265 95.3958 13.9934 95.2301 13.9602C95.0644 13.9223 94.8797 13.9034 94.6761 13.9034C94.1979 13.9034 93.8594 14.0194 93.6605 14.2514C93.4664 14.4787 93.3693 14.8054 93.3693 15.2315V27H90.7912ZM101.99 27.2131C100.924 27.2131 100.001 26.9787 99.2198 26.5099C98.4386 26.0412 97.8325 25.3854 97.4016 24.5426C96.9755 23.6998 96.7624 22.715 96.7624 21.5881C96.7624 20.4612 96.9755 19.474 97.4016 18.6264C97.8325 17.7789 98.4386 17.1207 99.2198 16.652C100.001 16.1832 100.924 15.9489 101.99 15.9489C103.055 15.9489 103.978 16.1832 104.76 16.652C105.541 17.1207 106.145 17.7789 106.571 18.6264C107.002 19.474 107.217 20.4612 107.217 21.5881C107.217 22.715 107.002 23.6998 106.571 24.5426C106.145 25.3854 105.541 26.0412 104.76 26.5099C103.978 26.9787 103.055 27.2131 101.99 27.2131ZM102.004 25.1534C102.582 25.1534 103.065 24.9948 103.453 24.6776C103.841 24.3556 104.13 23.9247 104.319 23.3849C104.513 22.8452 104.61 22.2438 104.61 21.581C104.61 20.9134 104.513 20.3097 104.319 19.7699C104.13 19.2254 103.841 18.7921 103.453 18.4702C103.065 18.1482 102.582 17.9872 102.004 17.9872C101.412 17.9872 100.92 18.1482 100.527 18.4702C100.138 18.7921 99.8472 19.2254 99.6531 19.7699C99.4637 20.3097 99.369 20.9134 99.369 21.581C99.369 22.2438 99.4637 22.8452 99.6531 23.3849C99.8472 23.9247 100.138 24.3556 100.527 24.6776C100.92 24.9948 101.412 25.1534 102.004 25.1534ZM111.97 12.4545V27H109.399V12.4545H111.97ZM114.614 27V16.0909H117.185V27H114.614ZM115.907 14.5426C115.499 14.5426 115.149 14.4077 114.855 14.1378C114.562 13.8632 114.415 13.5341 114.415 13.1506C114.415 12.7623 114.562 12.4332 114.855 12.1634C115.149 11.8887 115.499 11.7514 115.907 11.7514C116.319 11.7514 116.669 11.8887 116.958 12.1634C117.251 12.4332 117.398 12.7623 117.398 13.1506C117.398 13.5341 117.251 13.8632 116.958 14.1378C116.669 14.4077 116.319 14.5426 115.907 14.5426ZM124.587 27.2131C123.522 27.2131 122.599 26.9787 121.817 26.5099C121.036 26.0412 120.43 25.3854 119.999 24.5426C119.573 23.6998 119.36 22.715 119.36 21.5881C119.36 20.4612 119.573 19.474 119.999 18.6264C120.43 17.7789 121.036 17.1207 121.817 16.652C122.599 16.1832 123.522 15.9489 124.587 15.9489C125.653 15.9489 126.576 16.1832 127.357 16.652C128.138 17.1207 128.742 17.7789 129.168 18.6264C129.599 19.474 129.815 20.4612 129.815 21.5881C129.815 22.715 129.599 23.6998 129.168 24.5426C128.742 25.3854 128.138 26.0412 127.357 26.5099C126.576 26.9787 125.653 27.2131 124.587 27.2131ZM124.602 25.1534C125.179 25.1534 125.662 24.9948 126.05 24.6776C126.439 24.3556 126.728 23.9247 126.917 23.3849C127.111 22.8452 127.208 22.2438 127.208 21.581C127.208 20.9134 127.111 20.3097 126.917 19.7699C126.728 19.2254 126.439 18.7921 126.05 18.4702C125.662 18.1482 125.179 17.9872 124.602 17.9872C124.01 17.9872 123.517 18.1482 123.124 18.4702C122.736 18.7921 122.445 19.2254 122.251 19.7699C122.061 20.3097 121.967 20.9134 121.967 21.581C121.967 22.2438 122.061 22.8452 122.251 23.3849C122.445 23.9247 122.736 24.3556 123.124 24.6776C123.517 24.9948 124.01 25.1534 124.602 25.1534Z" fill="#212529"/>
</svg>
