<svg width="40" height="40" viewBox="0 0 40 40" fill="none" xmlns="http://www.w3.org/2000/svg">
<path d="M0 9C0 4.02944 4.02944 0 9 0H31C35.9706 0 40 4.02944 40 9V31C40 35.9706 35.9706 40 31 40H9C4.02944 40 0 35.9706 0 31V9Z" fill="url(#paint0_linear_15_214)"/>
<path d="M24.076 22.0697L22.741 22.8218C22.5808 22.912 22.3954 22.9473 22.2133 22.9222C22.0311 22.8972 21.8622 22.8133 21.7322 22.6832L17.2764 18.2275C17.1465 18.0974 17.0626 17.9285 17.0376 17.7464C17.0126 17.5642 17.0478 17.3789 17.1379 17.2187L17.89 15.8837C18.0254 15.6434 18.0784 15.3654 18.0409 15.0922C18.0034 14.819 17.8776 14.5655 17.6825 14.3705L15.6816 12.3696C15.5643 12.2523 15.425 12.1592 15.2718 12.0957C15.1185 12.0322 14.9543 11.9995 14.7884 11.9995C14.6225 11.9995 14.4582 12.0322 14.3049 12.0957C14.1517 12.1592 14.0124 12.2523 13.8952 12.3696L12.9866 13.2775C12.4554 13.8088 12.1169 14.5024 12.0252 15.2481C11.9335 15.9938 12.0937 16.7488 12.4803 17.393L12.9362 18.1528C15.2642 22.0326 18.55 25.2492 22.4786 27.494L22.5686 27.5457C23.9106 28.3125 25.5687 28.0891 26.6432 27.0152L27.592 26.0664C27.7093 25.9491 27.8024 25.8099 27.8659 25.6566C27.9294 25.5034 27.9621 25.3391 27.9621 25.1732C27.9621 25.0073 27.9294 24.8431 27.8659 24.6898C27.8024 24.5365 27.7093 24.3973 27.592 24.28L25.5898 22.2778C25.3948 22.0825 25.1413 21.9564 24.8679 21.9188C24.5946 21.8812 24.3164 21.9342 24.076 22.0697Z" fill="white"/>
<defs>
<linearGradient id="paint0_linear_15_214" x1="0" y1="0" x2="40" y2="40" gradientUnits="userSpaceOnUse">
<stop stop-color="#969FFF"/>
<stop offset="1" stop-color="#EF96EE"/>
</linearGradient>
</defs>
</svg>
