<svg width="250" height="100" viewBox="0 0 250 100" fill="none" xmlns="http://www.w3.org/2000/svg">
<path d="M56.7914 44.2499V31.0499L53.3301 44.2H49.4844L46.0714 31.1V44.2H42.4661V25H48.1385L51.4554 39.1L54.8684 25H60.4447V44.2H56.7914V44.2499Z" fill="black"/>
<path d="M56.0239 73.7002L54.8702 69.7503H48.0442L46.7462 73.7002H42.6602L49.2459 54.5002H53.7166L60.2062 73.7002H56.0239ZM51.4573 58.7503L49.0536 66.4002H53.7646L51.4573 58.7503Z" fill="black"/>
<path d="M89.9139 90H13V10H89.9139V90ZM15.692 87.2H87.2218V12.8H15.692V87.2Z" fill="black"/>
<path d="M65.397 48.9998H37.4675V50.9998H65.397V48.9998Z" fill="#FFD700"/>
<path d="M107.509 65.3003H103.711V38.0003H106.787L115.44 51.2504L124.093 38.0003H127.074V65.3003H123.324V46.1003L116.45 56.7003H114.335L107.46 46.1003V65.3003H107.509Z" fill="black"/>
<path d="M136.112 38.0502L143.275 50.0003L150.438 38.0003H154.956L145.198 54.2003V65.3003H141.352V54.2003L131.642 38.0502H136.112Z" fill="black"/>
<path d="M183.216 57.3H173.795C172.785 59.8 171.487 63.0499 170.622 65.3499H166.536L177.063 37.7H179.852L190.38 65.3499H186.341L183.216 57.3ZM175.237 53.5499H181.726L178.505 43.9L175.237 53.5499Z" fill="black"/>
<path d="M204.367 38.0003C210.039 38.0003 212.875 42.5504 212.875 47.1502C212.875 51.7502 210.039 56.2502 204.367 56.2502H198.598V65.3502H194.752V38.0003H204.367ZM204.367 52.3003C207.539 52.3003 209.125 49.7003 209.125 47.1502C209.125 44.5504 207.539 41.9502 204.367 41.9502H198.598V52.3003H204.367Z" fill="black"/>
<path d="M228.164 38.0003C233.835 38.0003 236.673 42.5504 236.673 47.1504C236.673 51.7504 233.835 56.2504 228.164 56.2504H222.396V65.3504H218.55V38.0003H228.164ZM228.164 52.3003C231.337 52.3003 232.923 49.7003 232.923 47.1504C232.923 44.5504 231.337 41.9504 228.164 41.9504H222.396V52.3003H228.164Z" fill="black"/>
</svg>
